<svg xmlns="http://www.w3.org/2000/svg" height="800" width="1200" version="1.0" viewBox="-127.1676 -115.12075 1102.1192 690.7245"><g fill="red"><path d="M384.934.47c-9.6.4-18.8 1-20.5 1.4-1.6.3-8.2 1.1-14.5 1.7-17.9 1.5-39.7 4.6-51.2 7-2.6.6-7.1 1.5-10 1.9-7 1.2-18.1 3.4-24.3 5-12 3-23.1 6-31.9 8.6-2.6.7-5.7 1.4-6.7 1.4s-2 .4-2.4.9c-.3.5-2 1.2-3.8 1.6-3.4.7-5.7 1.4-20.2 6.5-8.9 3.1-15.1 5.4-19 7.1-1.1.4-6 2.4-11 4.5-13.6 5.6-32.3 14.3-39 18.3-1.6 1-6.1 3.4-9.9 5.5-16.9 9.3-39.4 24.4-54.1 36.5-7.3 6-29.6 29.3-35.1 36.6-9.9 13.3-16.3 23.9-20.2 33.5-1.3 3-2.7 6.4-3.2 7.5-8.4 19.5-10.4 50.7-4.7 74 1.5 6.1 3.2 11.4 4.7 15 .5 1.1 1.9 4.5 3.2 7.5 2.3 5.6 13.2 24.5 15.5 26.8.7.7 1.3 1.7 1.3 2.1 0 .4 1.2 2 2.8 3.7 1.5 1.6 4 4.5 5.4 6.4 5.1 6.6 19.9 21.2 31.3 31 8.5 7.2 28.6 21.3 44.5 31.2 14.7 9.1 50.2 26 70 33.4 3.6 1.3 7.4 2.8 8.5 3.3 1.1.6 5.2 2 9 3.2 3.9 1.2 7.5 2.6 8 3 .6.3 2.6 1 4.5 1.4 1.9.4 4.1 1.1 5 1.5.8.4 4 1.5 7 2.3 3 .9 8.7 2.5 12.5 3.6 8.2 2.4 21.9 6 25.5 6.8 1.4.2 7.5 1.6 13.6 2.9 18 3.9 25.4 5.2 49.4 8.8 7.9 1.2 30.5 3.7 45.1 5.1 21.2 2 89.4 2 112.6.1 9.2-.8 19.3-1.7 22.3-2 18.9-1.6 54.8-6.7 71-10.1 18.2-3.8 22.9-4.8 27.4-6.1 2.6-.8 5.5-1.4 6.4-1.4 1.4 0 5-.9 17.2-4.5 14.1-4 16.6-4.8 18-5.5.9-.4 3.1-1.1 5-1.5 1.9-.4 4-1.1 4.5-1.5.6-.4 2.6-1.3 4.5-1.8 4.3-1.3 16.8-5.9 19.5-7.2 1.1-.5 4.5-1.9 7.5-3 24.9-9.5 60.7-29.4 80.5-44.7.6-.5 5.1-4 10-7.8 21.3-16.5 45.4-45.2 55.2-65.5 3.8-8 7.2-16 8.3-19.8 3.4-11.4 4.2-14.7 6-25.2 5.2-30.5-.5-58.4-17.9-88-3.8-6.4-12.3-18.4-14.1-20-.3-.3-2.4-2.7-4.5-5.5-5.7-7.1-21-22.1-30.6-30-11.7-9.7-49.8-35.5-52.4-35.5-.2 0-2.8-1.4-5.7-3.1-10.3-6.1-28.4-14.8-44.3-21.3-4.9-2.1-9.9-4.2-11-4.7-2.7-1.2-23.4-8.5-31.5-11.1-3.6-1.1-8.3-2.6-10.5-3.3-2.2-.7-6.7-2.1-10-3-3.3-.9-7.3-2.2-9-2.7-9.4-3.1-51.7-12.3-63-13.7-3.3-.5-8.3-1.3-11-1.9-5.8-1.3-18.7-2.9-33.5-4.2-5.8-.5-13.5-1.4-17-1.9-8.6-1.4-72.8-2.1-95-1.1zm73 63.9c3.6.7 6.9 1.6 7.5 2.2.5.5 1.8.9 3 .9 1.1 0 2.9.6 4 1.4 1.1.7 3.1 1.7 4.3 2.1 5 1.5 15 8.3 21.9 14.8 14 13.3 22.3 29.4 25.4 49.3 1 7 1 9.5-.4 17.9-2.2 12.9-2.8 13.5-13.1 13.6-10.6 0-20.9 1.9-27 5-5.4 2.7-7.6 5.6-3.5 4.6 1.3-.3 4.2-1.2 6.4-2.1 5.4-2 14.8-2 19.2.1 4.6 2.1 7.3 6.7 7.3 12.1 0 8.8-6.3 14.2-16.3 14.2-6.6 0-11.8-2.4-17.2-7.9-2.1-2.3-4.2-4.1-4.5-4.1-.4 0-1.6.8-2.8 1.7-1.1 1-5.3 4-9.1 6.8-3.9 2.7-7.1 5.3-7.1 5.7 0 .4 1.5.7 3.3.6 4.3-.1 5.7.7 5.7 3.7 0 3.5-3.1 4.7-13.4 5.3l-9.1.4-9.6 6.4c-5.3 3.5-10.1 6.4-10.7 6.4-1.2 0-3.2 5.9-6.1 18.5-2.1 9-2.7 11.2-5.5 21.5-2 7.2-6.6 25.6-7.6 30-.4 1.9-1.7 7.1-2.9 11.5-2.8 10.7-2.7 11.2 1.4 12.9 4.7 2 4.6 4.8-.2 8.1-2.1 1.4-4.1 2.5-4.5 2.5-.4 0-3.7 1.8-7.3 4-3.6 2.2-7.1 4-7.8 4-2.1 0-3.7-2.2-3.7-5.2 0-3.3-1-3.5-3.6-.7-3.7 4.1-11.2 7-17.9 7.1-5.4 0-6.9-.4-10-2.7-7.5-5.8-11.1-13.8-12.1-27.4-1.5-20.5 5.9-40.9 19.6-54 5.7-5.3 16.3-10.1 22.8-10.1 4.1 0 11.7 2.8 13.8 5.1.9 1 2.2 1.9 2.9 1.9 1.1 0 3-7.6 4.1-16.6l.6-4.1-4.1-.6c-8.6-1.1-14.4-8.3-14.4-17.8 0-5.9 1.2-8.9 5.5-12.8 2.6-2.5 1.9-3.7-1.2-2.1-4 2.1-7.5-.5-6-4.5.7-1.8 6.8-5.6 11.2-6.9 1.3-.4 1.6-1.2 1.2-3.3-.4-2.4.2-5.7 3.7-19.2.3-.9-.8-1.8-2.6-2.4-9-2.9-12.2-5.5-14.9-12.1-2-4.8-2-6.5 0-12.6 2.7-8.4 10-13 20.6-13 7.4 0 6.7.7 8.8-9 .7-3 1.8-7.6 2.6-10.2 1.6-5.5 1.8-9.8.4-9.8-1.8 0-1.1-3.9.9-4.9 3-1.6 14.1-1.6 15.1-.1.5.8.7 1.7.4 2.1-.2.4-1.1 3.8-1.9 7.5-.9 3.8-2.2 9.4-3 12.4-.8 3-1.9 7.5-2.5 9.9-1.3 5.5-.9 6.6 3.1 8.6 3 1.6 3.2 1.6 5.3-.4 4.2-3.9 8-1.6 6.9 4.2-.4 2-.1 2.7 1.1 2.7.8 0 1.8-1 2.1-2.3 1.1-4.7 2.7-11.4 4.1-17.2.8-3.3 1.9-8 2.4-10.5.6-2.5 1.5-5.7 2.1-7.3.9-2 .8-3.1-.1-4.1-.6-.8-1-2.5-.8-3.8.3-2.1 1-2.4 6.8-2.9 3.6-.4 7.1-.4 7.8-.2 1.8.8 1.5 5.2-1.4 16-1.4 5.4-3.2 12.3-3.9 15.3-.7 3-2.7 10.9-4.5 17.5-1.7 6.6-3.7 14.5-4.4 17.5-.8 3-2.4 9.3-3.6 13.8-1.5 5.9-2 9.8-1.6 13 .4 2.6.8 6 1 7.7.3 3 2.1 4.2 4.1 2.7.9-.6 6.2-20.4 11.1-41.7.8-3.3 2.1-8.5 2.8-11.5 1.2-4.7 2.9-11.1 5.3-20.7.4-1.7 0-2.2-1.8-2.5-1.8-.2-2.5-1-2.7-3-.3-2.3.1-2.8 2.5-3.3 1.5-.4 3.8-1.1 5.1-1.6 4.2-1.7 16.7-1.1 22.7 1.2 7.5 2.8 11 5.9 12.9 11.8 2.5 7.8 1.8 12.9-2.8 20.6-4 6.5-17.2 14.2-24.8 14.4-1.6.1-2.8.6-2.8 1.1 0 1.8 2.5 9 3.1 9 .3 0 2.6-1.1 5.1-2.4 6.9-3.6 14.9-5.6 24.9-6.1 5-.2 9.4-.7 9.8-1 .3-.4.5-6.6.5-13.8-.1-10.8-.5-14.3-2.3-19.6-3.4-9.7-6.1-15-11.5-22.1-10.1-13.4-22.3-21.8-39.4-27.2-9.3-3-32.7-3.2-41.7-.4-45.1 13.9-66.4 57.7-48.8 100.6.8 1.9 2.1 4.8 2.9 6.3 3.6 6.4-2.2 10.9-6.4 4.9-6.9-10-11.2-25.5-11.2-40.7 0-15.9 4.3-30.5 12.9-43.6 19.5-29.6 52.6-43.5 88.1-37zm-264.6 114.7c2.4.9 1.9 4.2-1 6.1-3.5 2.2-4.2 4.2-11.9 35.3-.7 3-1.8 7.3-2.4 9.5-1.7 6.4-1.4 7.1 3.7 10.1 2.6 1.5 9 5.5 14.2 8.9 17.6 11.4 19.2 12 20.3 7.3 3.2-13.5 6-24.3 8.1-32.3.9-3.3 2.3-8.5 3-11.5.8-3 2.3-9.1 3.5-13.4 2.6-9.9 2.6-9.7-.4-14.2-3.9-5.8-2.7-6.4 13-6.4 7.4 0 14 .3 14.9.6 2.5 1 1.9 4.1-1.5 6.6-2.3 1.9-3.3 3.8-4.4 8.4-.7 3.2-2 8.6-2.9 11.9-.9 3.3-2.3 8.5-3 11.5-.8 3-3.5 13.6-6.1 23.5-6.1 23.7-5.9 22.5-4.7 22.5.6 0 2.3-.5 3.8-1 3.7-1.4 6.4-.4 6.4 2.5 0 1.6-2.4 4.6-8.2 10-7.4 6.8-8.4 8.2-9.5 12.8-1.4 6.5-3.4 14.3-6.7 27.2-3.1 12.2-3.2 13.9-.5 16.4 2.7 2.5 1.9 6.6-1.3 7.5-3.7.9-22.4.7-25.2-.4-3.6-1.3-3.4-5 .3-7.7 1.5-1.2 3.1-3.2 3.4-4.5.3-1.3 1.2-5 2.1-8.3.8-3.3 2.9-11.4 4.6-18 5-18.8 5-17.9-.5-21.2-2.6-1.5-10.7-6.7-18-11.6-7.3-4.8-13.8-8.7-14.3-8.7-1.6 0-2 1.1-3.6 8.1-1.4 6-2 8.5-6.1 23.7-2.1 7.5-4 15.3-5.8 22.8-.7 3.3-1.7 6.6-2 7.2-.4.5-.8 2.9-.9 5.1-.1 3 .5 4.7 2.1 6.5 3 3.2 1.5 6.2-3.5 7.2-5.7 1.1-24.5-.2-25.5-1.8-1.5-2.3-1-4.6 1.1-5.3 2.9-.9 5-4.5 6.5-11.2 2.1-9.5 5.4-22.5 7.1-27.9 2.1-6.6 1.6-8.5-2.4-9.8-4.6-1.6-10-7-12.4-12.4-3.7-8.4-1.1-20.3 5.8-26.3 3.7-3.3 13.6-8 18-8.6 5.3-.7 6.5-2.1 8.1-8.7.6-2.8 1.8-8 2.7-11.6.9-3.6 2.1-8.3 2.6-10.5.4-2.2 1.3-5.3 1.9-6.8 1.8-4.6 1.3-10.5-1.1-13.7-1.7-2.4-1.9-3.2-.8-4.5 1-1.2 3.8-1.5 14.5-1.5 7.4 0 14 .3 14.9.6zm159.6 28.9c1 1.2 1 2.4.2 5.3-1.6 5.1-3.1 10.7-4.7 17.2-.7 3-2.1 8.2-3 11.5-.9 3.3-2.2 8.5-3 11.5-.7 3-2.1 8.2-3 11.5-.9 3.3-2.1 8-2.6 10.5-.6 2.5-1.3 5.2-1.6 6-.4.8-1.2 4-1.9 7-1.6 7-3.8 15.9-5.9 23.5-3.4 12.7-3.7 15.7-1.4 18.8 1.1 1.5 1.9 3.8 1.7 5-.4 2.6-4.7 3.5-17.5 3.6-9.5.1-13.3-1-13.3-3.9 0-2.5.2-2.5-5.4.6-5.8 3.3-10.9 3.4-14.2.3-1.3-1.2-2.4-2.8-2.4-3.5 0-2.4-1.8-2.4-4.7 0-4.7 3.9-11 6.6-17.1 7.2-7.6.8-12.2-.7-16.4-5.4-9.1-10.1-6.4-26.7 6.1-37.7 3.7-3.2 13.2-9.2 16.8-10.6 5.9-2.2 21.8-10.5 24.3-12.6 5.4-4.5 4.9-13.9-.9-16.3-4.9-2-9-.3-12.8 5.3-6.5 9.6-6.9 10-12.7 10.5-4.6.4-5.7.1-7.6-1.8-5.3-5.3 1.9-16.8 14-22.2 1.9-.8 6.8-2.1 10.9-2.8 6.6-1.2 8.2-1.2 14 .3 7.9 2.1 12.8 5.7 15.9 11.7 3.3 6.6 2.8 13.8-2.3 31.5-.7 2.7-1.9 7-2.5 9.5-.6 2.5-1.8 7-2.6 10-3.1 11.4-3.3 12.5-2.3 13.5.5.5 1.7 1 2.7 1 2.1 0 2.8 4 1.2 6.1-1.4 1.5-1 1.7 1.4.8 1.5-.6 3.6-6.6 6.7-18.9.6-2.2 1.6-6.3 2.4-9 1.5-5.3 6.1-23.6 7.5-29.5 2.1-9.4 7.8-30.7 10.6-40.2 2-6.8 1.8-12-.6-14.1-4.9-4.2 0-7.4 16.3-10.7 2.1-.4 4.1-1 4.4-1.4 1.1-1.1 4-.6 5.3.9zm334.8 8.9c6.4 3.5 7.9 12.3 3.8 21.3-3.2 6.9-10.3 14.5-13 14.1-2.2-.3-2.4-1.3-1-8.1.6-3.4.3-4.2-2.4-7-6-6.2-5.6-14 1-18.7 4.4-3.2 7.9-3.7 11.6-1.6zm-237.9 2.5c8.7 6.1-.3 23.2-12.1 23.1-5.4-.1-9.8-4.8-9.8-10.8 0-2.8 3.9-9.2 7.3-12 4-3.3 10.2-3.4 14.6-.3zm-1.5 26.7c2.7 1 2.2 4.5-4 27.4-.8 3-1.9 7.3-2.4 9.5s-1.9 7.6-3 12c-1.2 4.4-2.8 10.5-3.6 13.5-.8 3-2.2 8.6-3.1 12.4-1.4 6.6-1.4 6.9.6 9.7 2.9 3.9 2.7 6.7-.5 7.9-2.8 1.1-21.5 1.2-25.4.1-3.8-1-3.8-4.7-.1-8 2.9-2.5 3.9-4.9 6.6-16.1.7-3 2.7-10.9 4.5-17.5 3.8-14.5 5.7-22.3 7.2-29.3l1.2-5.4-3.2-2.5c-1.8-1.3-3.2-3-3.2-3.7 0-2.1 3.2-4.4 7.5-5.5 2.2-.5 6.9-1.8 10.5-2.9 7.6-2.3 8.3-2.4 10.4-1.6zm31.4.6c.7.7 1.2 3.2 1.2 5.7v4.5l4.3-4.1c4.4-4.3 10.3-7.3 14.4-7.3 5.7 0 11.3 5.1 11.3 10.3v2.9l3.5-3.1c12.3-10.7 33-12.9 43.9-4.6 5.9 4.5 8.6 9.7 8.6 16.9 0 3.3-.4 7.3-1 9-1 3.4-5.6 21.5-7.2 28.6-.6 2.5-1.4 4.9-1.8 5.5-.5.5-1.1 3.6-1.5 6.7l-.7 5.6 2.8.4c4.4.5 4.3 3.7-.3 8.1-4.8 4.7-8.9 6.9-12.9 6.9-3.5 0-8.4-2.7-8.4-4.7 0-.7-.7-1.8-1.5-2.5-1.3-1.1-2-.9-4.3 1.2-7.2 6.6-18.4 9.5-26.4 6.9-6.8-2.3-11.8-10.5-11.8-19.5 0-8.7 2.5-14.3 9.6-21.3 5.3-5.2 8.8-7.4 21.7-13.7 8.4-4.2 15.8-7.6 16.3-7.6 1.4-.1 6-4.3 7.3-6.7 1.6-3.1 1.4-8.5-.4-11-1.9-2.7-6.8-3.8-10.5-2.3-1.7.7-4.5 3.7-7 7.6-4.8 7.4-6.2 8.4-12.4 8.4-5.3 0-7.6-1.9-7.6-6.1v-3l-3.2 2.5c-1.8 1.3-4.9 2.7-6.9 3.1-3.3.6-4.1.3-7.6-2.9-3.3-3-4.3-3.3-5.6-2.3-2 1.5-6.5 11.4-8.3 18.4-.8 2.9-2.1 7.9-3 11-.8 3.2-2 7.8-2.5 10.3-.5 2.5-1.3 5.4-1.8 6.5-.4 1.1-1.6 5.3-2.6 9.3-1.8 7.9-2 7.1 2.9 13.8 2.1 2.7-1.1 4.1-11.2 4.6-18.3 1-23.5-1.2-17.2-7.4 2.3-2.3 3.8-5 4.7-8.8 2.8-11.4 4.2-16.7 5.7-22.5.9-3.3 2.3-8.5 3.1-11.5.7-3 2.1-8.4 3-12 .9-3.6 1.9-8.4 2.2-10.6.4-3.8.2-4.3-2.6-6-1.7-1-3.3-2.4-3.5-3-.9-2.4 2.9-5.2 9.9-7.4 3.9-1.2 7.9-2.6 9-3 2.9-1.2 4.9-1.2 6.3.2zm120.6.4c.3.9.6 3.4.6 5.6v4l4.6-4c4.6-4.1 11.7-7.2 16.4-7.2 3.5 0 10.9 4.9 11.7 7.7.6 2.8 3.4 3 5.7.4.9-1 4.7-3.3 8.3-5.1 5.1-2.6 7.4-3.1 10.4-2.7 5.7.7 10.4 4.7 12.3 10.4 2.1 6 2 7.4-.5 16.9-1.1 4.4-2.6 10.4-3.4 13.4-.7 3-2 8.2-2.9 11.5-2.6 9.3-4.5 17.4-5.8 24.2-1.1 5.9-1.1 6.4 1.1 9.3 2.6 3.5 2.1 6.5-1.2 7.4-2.8.7-22.5.8-25.4 0-3.5-1-3.7-4.5-.3-7.4 3-2.6 5.3-8.1 6.5-16 .4-2.4 1.1-5.1 1.6-6 .8-1.6 5.4-19.3 7.1-27.5.5-2.7 1.4-5.7 1.9-6.7 1.7-3.1 1.4-9.6-.6-11.8-4.1-4.5-11.3-.2-13.5 8.1-2.6 9.6-4 14.8-6.5 24.9-8.6 34.3-8 30.8-5.6 34.1 2.6 3.5 2.7 6.5.2 7.9-2.5 1.3-23.1 1.3-26.5 0-3.5-1.3-3.6-5.7-.3-6.9 3.4-1.3 3.7-2.1 12.2-36.1.7-3 2.1-8.4 3-12 3.6-14.2 3.8-16 2.7-18.5-1.6-3.5-5.4-4.1-9.5-1.6-2.8 1.7-3.5 3-4.4 7.3-.6 2.9-1.9 8-2.8 11.3-2.1 7.7-4.4 16.9-5.5 22.3-.5 2.4-1.2 4.7-1.5 5.2-.3.4-1.1 3.9-1.9 7.7-.8 3.7-1.7 7.7-2.1 8.8-.4 1.5.2 2.9 1.9 4.8 1.4 1.6 2.6 3.4 2.6 4.1 0 3-2.5 3.6-16.2 3.6-13.1 0-13.8-.1-14.9-2.2-1-1.9-.8-2.5 2.1-5 3-2.4 3.7-4.1 6.6-15.5 1.8-7 5.1-20 7.5-28.8 2.3-8.8 4.4-18 4.7-20.3.4-4 .1-4.6-2.8-7.1-2.7-2.2-3.2-3.2-2.7-5.3.5-2 1.5-2.7 4.3-3.3 2-.3 4.4-1 5.3-1.5 2.5-1.4 10.3-3.7 12.7-3.9 1.2 0 2.5.6 2.8 1.5zm116.4 0c7.8 2.2 16.2 6.4 17.9 9.1 1.3 2 1.3 3-.7 9.5-2.6 8.5-3.5 9.8-6.4 9.8-3.2 0-4.6-1.9-4.6-6.3 0-6.4-3-10.1-9.3-11.7-9.7-2.3-16.6 1.6-16.7 9.5 0 3.6.6 4.6 5.3 9.1 2.8 2.8 7 6.3 9.2 7.9 6.9 5.1 13.6 11.8 15.8 16 3.1 5.7 3.1 18.3 0 24-2.7 5.1-8.6 10.7-14.3 13.6-6.2 3.2-19.3 3.2-26.2.1-2.6-1.2-5.1-2.2-5.7-2.2-.5 0-2.5-1.5-4.4-3.3l-3.4-3.2.8-6.4c1.5-10.4 3.2-14.5 6.4-14.9 3.4-.4 4.4 1.1 4.5 6.3.1 5.1 3.8 12.6 7 14.3 1.6.8 4.3 1.1 7.5.8 4.1-.4 5.6-1.2 8.4-4.2 3.1-3.4 3.3-4 2.9-9-.6-6.5-1.3-7.4-13.9-17-5.3-4-11-9-12.7-11.1-10.7-13.5-3.3-34.8 14.1-40.5 6.6-2.1 11.5-2.2 18.5-.2z"/><path d="M477.434 117.67c-.3 1.3-1.4 5.9-2.6 10.3-4.4 17.3-4.8 19-4.9 19.7 0 1.7 7.7.6 11.5-1.5 10.3-5.8 12.8-19.1 5-27.3-.8-.8-6.9-3.4-8.1-3.4-.2 0-.6 1-.9 2.2zm-88.2 16.8c-3.9 2.3-5.3 4.8-5.3 9.4 0 4.2 3.1 7.9 7.7 9.4 2.6.8 3.4.7 4.6-.6 1.4-1.7 3.3-8.9 4.4-16.5l.5-3.7h-4.3c-2.6 0-5.7.8-7.6 2zm24.2 6.7c-.9 2.1-1.5 4.6-1.3 5.6.3 1.6.9 1.3 4.1-1.9 4-4 4.6-5.8 2.1-6.8-2.7-1.1-3.3-.7-4.9 3.1zm8.2 9.5c-3.3 3.2-6.4 5.8-7 5.8-3.5.1-6.1 4-8.3 12.4-2.7 10.6-4 12.6-9 14.2-3.7 1.1-3.4 1.2 5.7 1.3 9.3.1 12.2.7 25.8 5.1 7.8 2.5 9.2 1.4 3.4-2.5-7.3-4.9-7.8-5.7-6.4-10.7.7-2.4 1.7-6.3 2.2-8.7.5-2.5 1.3-5.9 1.8-7.5 3.1-10.2 3.3-11.7 1.5-13.7-.9-1-2.2-1.8-2.8-1.7-.6.1-3.7 2.8-6.9 6zm42.4 20.5c-.6 1.6-1.5 4.8-2.1 7.3-.5 2.5-1.2 5.8-1.6 7.4l-.7 2.9 3.9-2.3c4-2.5 6.4-4.5 6.4-5.4 0-.2-1-.6-2.2-.8-2.6-.3-3.7-4.3-1.9-6.1 1.3-1.3 1.5-5.7.2-5.7-.5 0-1.4 1.2-2 2.7zm23.9 11c-1.9.8-3.7 1.7-3.9 1.9-.9.8 4.5 5.7 7.8 7.1 8.6 3.7 16.9-2.9 11.1-8.7-2.4-2.4-9.7-2.6-15-.3zm-91 11.3c0 .6 3.1 1 7.4 1 4.1 0 7.8-.5 8.1-1 .4-.6-2.3-1-7.4-1-4.7 0-8.1.4-8.1 1zm-9 3c0 1.2.8 1.2 3.5 0 1.8-.8 1.7-.9-.7-.9-1.6-.1-2.8.3-2.8.9zm30.8-.3c1.2.2 3 .2 4 0 .9-.3-.1-.5-2.3-.4-2.2 0-3 .2-1.7.4zm8.2 2.1c0 1 6 2.5 6.8 1.7.8-.8 0-1.2-3.5-2-1.9-.4-3.3-.3-3.3.3zm10.5 3.2c-.4.6.7 1 2.5 1s2.9-.4 2.5-1c-.3-.6-1.5-1-2.5-1s-2.2.4-2.5 1zm-42 2.2c-5.4 1.9-7.5 4.6-7.5 9.7 0 6.1 3.7 10.1 9.2 10.1 4.5 0 4.6-.5 1.2-4.1-2.2-2.3-2.4-2.9-1.3-4.8.8-1.1 2.7-2.3 4.4-2.6 1.6-.4 4.8-1.2 7-2 2.2-.7 5.9-1.8 8.3-2.4 2.3-.7 4.2-1.5 4.2-2 0-1.1-11.8-3.1-17.6-3-2.7 0-6.2.5-7.9 1.1zm28.2 3.7c-.2.3 0 2.3.3 4.4l.5 3.9 2.4-2.1c1.3-1.2 2.8-2.1 3.3-2.1s.8-.8.6-1.7c-.3-1.7-6.5-3.8-7.1-2.4zm-46.9 53.5c-2 .6-5.3 2.7-7.3 4.6-4.1 3.9-10.7 16.8-12.5 24.5-2.2 8.6-2.4 19.9-.5 25.5 2.2 6.6 3.7 8 9 8 3.7 0 4.7-.5 7.4-3.5 6.1-7 10.9-20.3 14.6-40.6 1.9-10.2 1.6-13.4-1.2-16.7-2.4-2.7-5-3.2-9.5-1.8zm-235.4-11.7c-4.2.8-6 4.5-5.6 10.9.2 1.5 1.3 2.4 4.1 3.2 6 1.9 8.2.5 9.8-5.9 2.2-8.6 2.2-8.4-2.2-8.5-2.2-.1-5 0-6.1.3zm131.7 43.5c-14.5 7.5-20.1 14.2-20.1 23.5 0 6.3 2.1 9.3 6.4 9.3 6.9 0 16.7-10.6 19.5-21 3.8-14.2 4.1-16.3 2.2-15.9-.3.1-3.9 1.9-8 4.1zm264.4-2.3c-19.6 10.7-23.8 15.3-23.9 25.7-.1 6.9 1.5 9.4 6.1 9.4 4.4-.1 9-3.1 13.1-8.6 4.2-5.6 5.2-7.8 7.5-16.9 3.4-12.7 3.3-12.9-2.8-9.6z"/></g></svg>